<?xml version="1.0" encoding="UTF-8"?>
<svg xmlns="http://www.w3.org/2000/svg" xmlns:xlink="http://www.w3.org/1999/xlink" width="1280" height="720" viewBox="0 0 1280 720">
<defs>
<g>
<g id="glyph-0-0">
<path d="M 1.328125 -0.546875 L 1.328125 -0.90625 L 0.9375 -0.90625 C 0.789062 -0.90625 0.679688 -0.875 0.609375 -0.8125 C 0.535156 -0.75 0.5 -0.648438 0.5 -0.515625 C 0.5 -0.398438 0.535156 -0.304688 0.609375 -0.234375 C 0.679688 -0.160156 0.78125 -0.125 0.90625 -0.125 C 1.03125 -0.125 1.128906 -0.160156 1.203125 -0.234375 C 1.285156 -0.316406 1.328125 -0.421875 1.328125 -0.546875 Z M 1.625 -1.078125 L 1.625 -0.171875 L 1.890625 -0.171875 L 1.890625 0 L 1.328125 0 L 1.328125 -0.1875 C 1.253906 -0.101562 1.175781 -0.0390625 1.09375 0 C 1.007812 0.03125 0.910156 0.046875 0.796875 0.046875 C 0.597656 0.046875 0.441406 -0.00390625 0.328125 -0.109375 C 0.222656 -0.210938 0.171875 -0.347656 0.171875 -0.515625 C 0.171875 -0.691406 0.234375 -0.828125 0.359375 -0.921875 C 0.484375 -1.023438 0.664062 -1.078125 0.90625 -1.078125 L 1.328125 -1.078125 L 1.328125 -1.203125 C 1.328125 -1.328125 1.285156 -1.425781 1.203125 -1.5 C 1.117188 -1.570312 1.007812 -1.609375 0.875 -1.609375 C 0.75 -1.609375 0.648438 -1.582031 0.578125 -1.53125 C 0.515625 -1.476562 0.472656 -1.398438 0.453125 -1.296875 L 0.296875 -1.296875 L 0.296875 -1.640625 C 0.398438 -1.679688 0.5 -1.710938 0.59375 -1.734375 C 0.695312 -1.765625 0.796875 -1.78125 0.890625 -1.78125 C 1.128906 -1.78125 1.3125 -1.71875 1.4375 -1.59375 C 1.5625 -1.476562 1.625 -1.304688 1.625 -1.078125 Z "/>
</g>
<g id="glyph-0-1">
<path d="M 0.328125 -2.328125 C 0.453125 -2.367188 0.570312 -2.398438 0.6875 -2.421875 C 0.800781 -2.453125 0.910156 -2.46875 1.015625 -2.46875 C 1.253906 -2.46875 1.4375 -2.414062 1.5625 -2.3125 C 1.695312 -2.207031 1.765625 -2.066406 1.765625 -1.890625 C 1.765625 -1.742188 1.71875 -1.617188 1.625 -1.515625 C 1.539062 -1.421875 1.410156 -1.359375 1.234375 -1.328125 C 1.441406 -1.296875 1.597656 -1.222656 1.703125 -1.109375 C 1.816406 -0.992188 1.875 -0.84375 1.875 -0.65625 C 1.875 -0.425781 1.796875 -0.25 1.640625 -0.125 C 1.484375 -0.0078125 1.265625 0.046875 0.984375 0.046875 C 0.859375 0.046875 0.734375 0.03125 0.609375 0 C 0.492188 -0.0195312 0.375 -0.0546875 0.25 -0.109375 L 0.25 -0.59375 L 0.4375 -0.59375 C 0.445312 -0.4375 0.5 -0.316406 0.59375 -0.234375 C 0.6875 -0.148438 0.816406 -0.109375 0.984375 -0.109375 C 1.148438 -0.109375 1.28125 -0.15625 1.375 -0.25 C 1.476562 -0.351562 1.53125 -0.488281 1.53125 -0.65625 C 1.53125 -0.84375 1.476562 -0.984375 1.375 -1.078125 C 1.28125 -1.179688 1.140625 -1.234375 0.953125 -1.234375 L 0.796875 -1.234375 L 0.796875 -1.390625 L 0.875 -1.390625 C 1.0625 -1.390625 1.203125 -1.429688 1.296875 -1.515625 C 1.390625 -1.597656 1.4375 -1.71875 1.4375 -1.875 C 1.4375 -2.007812 1.394531 -2.113281 1.3125 -2.1875 C 1.238281 -2.269531 1.128906 -2.3125 0.984375 -2.3125 C 0.835938 -2.3125 0.722656 -2.273438 0.640625 -2.203125 C 0.566406 -2.128906 0.519531 -2.023438 0.5 -1.890625 L 0.328125 -1.890625 Z "/>
</g>
</g>
</defs>
<g fill="rgb(96.862745%, 85.098039%, 43.529412%)" fill-opacity="1">
<use xlink:href="#glyph-0-0" x="30" y="23.09375"/>
<use xlink:href="#glyph-0-1" x="32" y="23.09375"/>
</g>
</svg>
