<?xml version="1.0" encoding="UTF-8"?>
<svg xmlns="http://www.w3.org/2000/svg" xmlns:xlink="http://www.w3.org/1999/xlink" width="1920" height="1080" viewBox="0 0 1920 1080">
<defs>
<g>
<g id="glyph-0-0">
<path d="M 3.28125 -0.59375 L 3.953125 -0.59375 C 4.722656 -0.59375 5.28125 -0.835938 5.625 -1.328125 C 5.976562 -1.816406 6.15625 -2.59375 6.15625 -3.65625 C 6.15625 -4.707031 5.976562 -5.476562 5.625 -5.96875 C 5.28125 -6.457031 4.722656 -6.703125 3.953125 -6.703125 L 3.28125 -6.703125 Z M 0.46875 0 L 0.46875 -0.59375 L 1.40625 -0.59375 L 1.40625 -6.703125 L 0.46875 -6.703125 L 0.46875 -7.296875 L 4.203125 -7.296875 C 5.515625 -7.296875 6.515625 -6.984375 7.203125 -6.359375 C 7.898438 -5.734375 8.25 -4.832031 8.25 -3.65625 C 8.25 -2.46875 7.898438 -1.5625 7.203125 -0.9375 C 6.515625 -0.3125 5.515625 0 4.203125 0 Z "/>
</g>
<g id="glyph-0-1">
<path d="M 0.921875 -6.65625 C 0.921875 -6.925781 1.007812 -7.148438 1.1875 -7.328125 C 1.375 -7.503906 1.597656 -7.59375 1.859375 -7.59375 C 2.117188 -7.59375 2.335938 -7.503906 2.515625 -7.328125 C 2.691406 -7.148438 2.78125 -6.925781 2.78125 -6.65625 C 2.78125 -6.40625 2.691406 -6.1875 2.515625 -6 C 2.335938 -5.820312 2.117188 -5.734375 1.859375 -5.734375 C 1.597656 -5.734375 1.375 -5.820312 1.1875 -6 C 1.007812 -6.175781 0.921875 -6.394531 0.921875 -6.65625 Z M 2.8125 -0.59375 L 3.546875 -0.59375 L 3.546875 0 L 0.34375 0 L 0.34375 -0.59375 L 1.078125 -0.59375 L 1.078125 -4.59375 L 0.34375 -4.59375 L 0.34375 -5.1875 L 2.8125 -5.1875 Z "/>
</g>
<g id="glyph-0-2">
<path d="M 4.984375 -4.59375 L 2.8125 -4.59375 L 2.8125 -0.59375 L 3.8125 -0.59375 L 3.8125 0 L 0.34375 0 L 0.34375 -0.59375 L 1.078125 -0.59375 L 1.078125 -4.59375 L 0.3125 -4.59375 L 0.3125 -5.1875 L 1.078125 -5.1875 L 1.078125 -5.84375 C 1.078125 -6.414062 1.257812 -6.847656 1.625 -7.140625 C 2 -7.441406 2.539062 -7.59375 3.25 -7.59375 C 3.53125 -7.59375 3.800781 -7.578125 4.0625 -7.546875 C 4.320312 -7.515625 4.582031 -7.46875 4.84375 -7.40625 L 4.84375 -6.296875 L 4.296875 -6.296875 C 4.265625 -6.554688 4.1875 -6.742188 4.0625 -6.859375 C 3.945312 -6.984375 3.773438 -7.046875 3.546875 -7.046875 C 3.285156 -7.046875 3.097656 -6.953125 2.984375 -6.765625 C 2.867188 -6.578125 2.8125 -6.273438 2.8125 -5.859375 L 2.8125 -5.1875 L 4.984375 -5.1875 L 4.984375 -5.84375 C 4.984375 -6.414062 5.164062 -6.847656 5.53125 -7.140625 C 5.90625 -7.441406 6.445312 -7.59375 7.15625 -7.59375 C 7.4375 -7.59375 7.707031 -7.578125 7.96875 -7.546875 C 8.226562 -7.515625 8.488281 -7.46875 8.75 -7.40625 L 8.75 -6.296875 L 8.203125 -6.296875 C 8.171875 -6.554688 8.09375 -6.742188 7.96875 -6.859375 C 7.851562 -6.984375 7.679688 -7.046875 7.453125 -7.046875 C 7.191406 -7.046875 7.003906 -6.953125 6.890625 -6.765625 C 6.773438 -6.578125 6.71875 -6.273438 6.71875 -5.859375 L 6.71875 -5.1875 L 8.015625 -5.1875 L 8.015625 -4.59375 L 6.71875 -4.59375 L 6.71875 -0.59375 L 7.71875 -0.59375 L 7.71875 0 L 4.25 0 L 4.25 -0.59375 L 4.984375 -0.59375 Z "/>
</g>
<g id="glyph-0-3">
<path d="M 6.1875 -5.1875 L 6.1875 -0.59375 L 6.921875 -0.59375 L 6.921875 0 L 4.453125 0 L 4.453125 -0.734375 C 4.253906 -0.421875 4.019531 -0.195312 3.75 -0.0625 C 3.476562 0.0703125 3.140625 0.140625 2.734375 0.140625 C 2.148438 0.140625 1.707031 -0.03125 1.40625 -0.375 C 1.113281 -0.71875 0.96875 -1.222656 0.96875 -1.890625 L 0.96875 -4.59375 L 0.234375 -4.59375 L 0.234375 -5.1875 L 2.703125 -5.1875 L 2.703125 -2.15625 C 2.703125 -1.507812 2.753906 -1.097656 2.859375 -0.921875 C 2.960938 -0.753906 3.160156 -0.671875 3.453125 -0.671875 C 3.796875 -0.671875 4.046875 -0.796875 4.203125 -1.046875 C 4.367188 -1.304688 4.453125 -1.71875 4.453125 -2.28125 L 4.453125 -4.59375 L 3.828125 -4.59375 L 3.828125 -5.1875 Z "/>
</g>
<g id="glyph-0-4">
<path d="M 0.46875 -0.15625 L 0.46875 -1.609375 L 1.015625 -1.609375 C 1.066406 -1.210938 1.210938 -0.910156 1.453125 -0.703125 C 1.703125 -0.503906 2.035156 -0.40625 2.453125 -0.40625 C 2.804688 -0.40625 3.078125 -0.46875 3.265625 -0.59375 C 3.453125 -0.71875 3.546875 -0.894531 3.546875 -1.125 C 3.546875 -1.332031 3.484375 -1.488281 3.359375 -1.59375 C 3.242188 -1.707031 3.015625 -1.8125 2.671875 -1.90625 L 1.953125 -2.078125 C 1.421875 -2.210938 1.035156 -2.40625 0.796875 -2.65625 C 0.554688 -2.90625 0.4375 -3.238281 0.4375 -3.65625 C 0.4375 -4.21875 0.628906 -4.632812 1.015625 -4.90625 C 1.410156 -5.1875 2.015625 -5.328125 2.828125 -5.328125 C 3.128906 -5.328125 3.453125 -5.300781 3.796875 -5.25 C 4.148438 -5.207031 4.535156 -5.128906 4.953125 -5.015625 L 4.953125 -3.71875 L 4.40625 -3.71875 C 4.375 -4.070312 4.242188 -4.335938 4.015625 -4.515625 C 3.796875 -4.691406 3.476562 -4.78125 3.0625 -4.78125 C 2.707031 -4.78125 2.441406 -4.722656 2.265625 -4.609375 C 2.085938 -4.492188 2 -4.332031 2 -4.125 C 2 -3.945312 2.050781 -3.804688 2.15625 -3.703125 C 2.257812 -3.609375 2.441406 -3.523438 2.703125 -3.453125 L 3.421875 -3.265625 C 4.097656 -3.097656 4.566406 -2.882812 4.828125 -2.625 C 5.085938 -2.375 5.21875 -2.023438 5.21875 -1.578125 C 5.21875 -0.984375 5.007812 -0.546875 4.59375 -0.265625 C 4.175781 0.00390625 3.523438 0.140625 2.640625 0.140625 C 2.316406 0.140625 1.972656 0.113281 1.609375 0.0625 C 1.253906 0.0195312 0.875 -0.0507812 0.46875 -0.15625 Z "/>
</g>
<g id="glyph-0-5">
<path d="M 3.34375 -0.40625 C 3.707031 -0.40625 3.960938 -0.5625 4.109375 -0.875 C 4.253906 -1.1875 4.328125 -1.757812 4.328125 -2.59375 C 4.328125 -3.425781 4.253906 -4 4.109375 -4.3125 C 3.960938 -4.625 3.707031 -4.78125 3.34375 -4.78125 C 2.96875 -4.78125 2.707031 -4.625 2.5625 -4.3125 C 2.414062 -4 2.34375 -3.425781 2.34375 -2.59375 C 2.34375 -1.769531 2.414062 -1.195312 2.5625 -0.875 C 2.707031 -0.5625 2.96875 -0.40625 3.34375 -0.40625 Z M 3.34375 0.140625 C 2.425781 0.140625 1.707031 -0.0976562 1.1875 -0.578125 C 0.664062 -1.066406 0.40625 -1.738281 0.40625 -2.59375 C 0.40625 -3.445312 0.664062 -4.113281 1.1875 -4.59375 C 1.707031 -5.082031 2.425781 -5.328125 3.34375 -5.328125 C 4.257812 -5.328125 4.972656 -5.082031 5.484375 -4.59375 C 6.003906 -4.113281 6.265625 -3.445312 6.265625 -2.59375 C 6.265625 -1.738281 6.003906 -1.066406 5.484375 -0.578125 C 4.972656 -0.0976562 4.257812 0.140625 3.34375 0.140625 Z "/>
</g>
<g id="glyph-0-6">
<path d="M 0.34375 0 L 0.34375 -0.59375 L 1.078125 -0.59375 L 1.078125 -4.59375 L 0.34375 -4.59375 L 0.34375 -5.1875 L 2.8125 -5.1875 L 2.8125 -4.453125 C 3.019531 -4.765625 3.253906 -4.988281 3.515625 -5.125 C 3.785156 -5.257812 4.125 -5.328125 4.53125 -5.328125 C 5.113281 -5.328125 5.550781 -5.15625 5.84375 -4.8125 C 6.144531 -4.46875 6.296875 -3.960938 6.296875 -3.296875 L 6.296875 -0.59375 L 7.046875 -0.59375 L 7.046875 0 L 3.9375 0 L 3.9375 -0.59375 L 4.578125 -0.59375 L 4.578125 -3.34375 C 4.578125 -3.789062 4.519531 -4.097656 4.40625 -4.265625 C 4.289062 -4.429688 4.09375 -4.515625 3.8125 -4.515625 C 3.46875 -4.515625 3.210938 -4.382812 3.046875 -4.125 C 2.890625 -3.875 2.8125 -3.472656 2.8125 -2.921875 L 2.8125 -0.59375 L 3.4375 -0.59375 L 3.4375 0 Z "/>
</g>
<g id="glyph-0-7">
</g>
<g id="glyph-0-8">
<path d="M 8.515625 0 L 7.265625 0 L 5.609375 -5.3125 L 3.953125 0 L 2.703125 0 L 0.625 -6.703125 L -0.09375 -6.703125 L -0.09375 -7.296875 L 3.375 -7.296875 L 3.375 -6.703125 L 2.59375 -6.703125 L 3.984375 -2.21875 L 5.546875 -7.296875 L 6.9375 -7.296875 L 8.546875 -2.140625 L 9.96875 -6.703125 L 9.09375 -6.703125 L 9.09375 -7.296875 L 11.34375 -7.296875 L 11.34375 -6.703125 L 10.59375 -6.703125 Z "/>
</g>
<g id="glyph-0-9">
<path d="M 5.375 -5.25 L 5.375 -3.703125 L 4.8125 -3.703125 C 4.800781 -3.972656 4.726562 -4.175781 4.59375 -4.3125 C 4.46875 -4.445312 4.28125 -4.515625 4.03125 -4.515625 C 3.65625 -4.515625 3.359375 -4.347656 3.140625 -4.015625 C 2.921875 -3.691406 2.8125 -3.234375 2.8125 -2.640625 L 2.8125 -0.59375 L 3.75 -0.59375 L 3.75 0 L 0.34375 0 L 0.34375 -0.59375 L 1.078125 -0.59375 L 1.078125 -4.59375 L 0.28125 -4.59375 L 0.28125 -5.1875 L 2.8125 -5.1875 L 2.8125 -4.265625 C 2.976562 -4.628906 3.195312 -4.894531 3.46875 -5.0625 C 3.75 -5.238281 4.09375 -5.328125 4.5 -5.328125 C 4.601562 -5.328125 4.726562 -5.316406 4.875 -5.296875 C 5.019531 -5.285156 5.1875 -5.269531 5.375 -5.25 Z "/>
</g>
<g id="glyph-0-10">
<path d="M 2.8125 -0.59375 L 3.546875 -0.59375 L 3.546875 0 L 0.34375 0 L 0.34375 -0.59375 L 1.078125 -0.59375 L 1.078125 -7.015625 L 0.34375 -7.015625 L 0.34375 -7.59375 L 2.8125 -7.59375 Z "/>
</g>
<g id="glyph-0-11">
<path d="M 4.296875 -2.34375 L 4.296875 -2.859375 C 4.296875 -3.460938 4.21875 -3.898438 4.0625 -4.171875 C 3.90625 -4.441406 3.65625 -4.578125 3.3125 -4.578125 C 2.957031 -4.578125 2.707031 -4.429688 2.5625 -4.140625 C 2.414062 -3.859375 2.34375 -3.34375 2.34375 -2.59375 C 2.34375 -1.851562 2.414062 -1.335938 2.5625 -1.046875 C 2.707031 -0.765625 2.957031 -0.625 3.3125 -0.625 C 3.65625 -0.625 3.90625 -0.757812 4.0625 -1.03125 C 4.21875 -1.300781 4.296875 -1.738281 4.296875 -2.34375 Z M 6.015625 -0.59375 L 6.765625 -0.59375 L 6.765625 0 L 4.296875 0 L 4.296875 -0.65625 C 4.148438 -0.382812 3.953125 -0.179688 3.703125 -0.046875 C 3.453125 0.078125 3.144531 0.140625 2.78125 0.140625 C 2.039062 0.140625 1.457031 -0.101562 1.03125 -0.59375 C 0.613281 -1.082031 0.40625 -1.75 0.40625 -2.59375 C 0.40625 -3.445312 0.613281 -4.113281 1.03125 -4.59375 C 1.457031 -5.082031 2.039062 -5.328125 2.78125 -5.328125 C 3.144531 -5.328125 3.453125 -5.257812 3.703125 -5.125 C 3.953125 -5 4.148438 -4.800781 4.296875 -4.53125 L 4.296875 -7.015625 L 3.546875 -7.015625 L 3.546875 -7.59375 L 6.015625 -7.59375 Z "/>
</g>
<g id="glyph-0-12">
<path d="M 0.421875 0 L 0.421875 -0.59375 L 1.34375 -0.59375 L 1.34375 -6.703125 L 0.421875 -6.703125 L 0.421875 -7.296875 L 3.421875 -7.296875 L 5.515625 -2.609375 L 7.59375 -7.296875 L 10.59375 -7.296875 L 10.59375 -6.703125 L 9.671875 -6.703125 L 9.671875 -0.59375 L 10.59375 -0.59375 L 10.59375 0 L 6.84375 0 L 6.84375 -0.59375 L 7.78125 -0.59375 L 7.78125 -6.15625 L 5.515625 -1.0625 L 4.28125 -1.0625 L 2.03125 -6.15625 L 2.03125 -0.59375 L 2.953125 -0.59375 L 2.953125 0 Z "/>
</g>
<g id="glyph-0-13">
<path d="M 4.015625 -2.9375 C 4.015625 -3.613281 3.945312 -4.085938 3.8125 -4.359375 C 3.6875 -4.640625 3.472656 -4.78125 3.171875 -4.78125 C 2.867188 -4.78125 2.65625 -4.644531 2.53125 -4.375 C 2.40625 -4.101562 2.34375 -3.648438 2.34375 -3.015625 L 2.34375 -2.9375 Z M 5.90625 -2.34375 L 2.34375 -2.34375 L 2.34375 -2.3125 C 2.34375 -1.632812 2.441406 -1.144531 2.640625 -0.84375 C 2.835938 -0.550781 3.164062 -0.40625 3.625 -0.40625 C 4 -0.40625 4.300781 -0.503906 4.53125 -0.703125 C 4.757812 -0.898438 4.90625 -1.191406 4.96875 -1.578125 L 5.78125 -1.578125 C 5.644531 -0.984375 5.367188 -0.546875 4.953125 -0.265625 C 4.535156 0.00390625 3.953125 0.140625 3.203125 0.140625 C 2.296875 0.140625 1.601562 -0.09375 1.125 -0.5625 C 0.644531 -1.039062 0.40625 -1.71875 0.40625 -2.59375 C 0.40625 -3.457031 0.648438 -4.128906 1.140625 -4.609375 C 1.640625 -5.085938 2.328125 -5.328125 3.203125 -5.328125 C 4.054688 -5.328125 4.710938 -5.070312 5.171875 -4.5625 C 5.628906 -4.0625 5.875 -3.320312 5.90625 -2.34375 Z "/>
</g>
<g id="glyph-0-14">
<path d="M 7.453125 -2.078125 C 7.253906 -1.328125 6.90625 -0.769531 6.40625 -0.40625 C 5.914062 -0.0390625 5.25 0.140625 4.40625 0.140625 C 3.175781 0.140625 2.203125 -0.195312 1.484375 -0.875 C 0.773438 -1.550781 0.421875 -2.472656 0.421875 -3.640625 C 0.421875 -4.804688 0.773438 -5.726562 1.484375 -6.40625 C 2.203125 -7.082031 3.175781 -7.421875 4.40625 -7.421875 C 4.84375 -7.421875 5.296875 -7.367188 5.765625 -7.265625 C 6.234375 -7.160156 6.726562 -7.003906 7.25 -6.796875 L 7.25 -5 L 6.625 -5 C 6.5 -5.613281 6.269531 -6.070312 5.9375 -6.375 C 5.601562 -6.675781 5.160156 -6.828125 4.609375 -6.828125 C 3.898438 -6.828125 3.375 -6.566406 3.03125 -6.046875 C 2.6875 -5.523438 2.515625 -4.722656 2.515625 -3.640625 C 2.515625 -2.554688 2.6875 -1.753906 3.03125 -1.234375 C 3.375 -0.710938 3.90625 -0.453125 4.625 -0.453125 C 5.101562 -0.453125 5.492188 -0.585938 5.796875 -0.859375 C 6.109375 -1.128906 6.335938 -1.535156 6.484375 -2.078125 Z "/>
</g>
<g id="glyph-0-15">
<path d="M 6.0625 -4.34375 C 6.3125 -4.6875 6.570312 -4.9375 6.84375 -5.09375 C 7.125 -5.25 7.453125 -5.328125 7.828125 -5.328125 C 8.421875 -5.328125 8.863281 -5.160156 9.15625 -4.828125 C 9.457031 -4.492188 9.609375 -3.984375 9.609375 -3.296875 L 9.609375 -0.59375 L 10.359375 -0.59375 L 10.359375 0 L 7.265625 0 L 7.265625 -0.59375 L 7.875 -0.59375 L 7.875 -3.046875 C 7.875 -3.691406 7.820312 -4.097656 7.71875 -4.265625 C 7.625 -4.429688 7.441406 -4.515625 7.171875 -4.515625 C 6.867188 -4.515625 6.632812 -4.394531 6.46875 -4.15625 C 6.300781 -3.925781 6.21875 -3.59375 6.21875 -3.15625 L 6.21875 -0.59375 L 6.828125 -0.59375 L 6.828125 0 L 3.859375 0 L 3.859375 -0.59375 L 4.484375 -0.59375 L 4.484375 -3.046875 C 4.484375 -3.691406 4.429688 -4.097656 4.328125 -4.265625 C 4.234375 -4.429688 4.050781 -4.515625 3.78125 -4.515625 C 3.46875 -4.515625 3.226562 -4.394531 3.0625 -4.15625 C 2.894531 -3.925781 2.8125 -3.59375 2.8125 -3.15625 L 2.8125 -0.59375 L 3.421875 -0.59375 L 3.421875 0 L 0.34375 0 L 0.34375 -0.59375 L 1.078125 -0.59375 L 1.078125 -4.59375 L 0.34375 -4.59375 L 0.34375 -5.1875 L 2.8125 -5.1875 L 2.8125 -4.453125 C 3.007812 -4.753906 3.238281 -4.972656 3.5 -5.109375 C 3.757812 -5.253906 4.066406 -5.328125 4.421875 -5.328125 C 4.847656 -5.328125 5.191406 -5.242188 5.453125 -5.078125 C 5.722656 -4.921875 5.925781 -4.675781 6.0625 -4.34375 Z "/>
</g>
<g id="glyph-0-16">
<path d="M 2.703125 -2.859375 L 2.703125 -2.34375 C 2.703125 -1.738281 2.78125 -1.300781 2.9375 -1.03125 C 3.09375 -0.757812 3.34375 -0.625 3.6875 -0.625 C 4.039062 -0.625 4.289062 -0.765625 4.4375 -1.046875 C 4.582031 -1.335938 4.65625 -1.851562 4.65625 -2.59375 C 4.65625 -3.34375 4.582031 -3.859375 4.4375 -4.140625 C 4.289062 -4.429688 4.039062 -4.578125 3.6875 -4.578125 C 3.34375 -4.578125 3.09375 -4.441406 2.9375 -4.171875 C 2.78125 -3.898438 2.703125 -3.460938 2.703125 -2.859375 Z M 0.96875 -4.59375 L 0.234375 -4.59375 L 0.234375 -5.1875 L 2.703125 -5.1875 L 2.703125 -4.53125 C 2.847656 -4.800781 3.039062 -5 3.28125 -5.125 C 3.53125 -5.257812 3.835938 -5.328125 4.203125 -5.328125 C 4.941406 -5.328125 5.523438 -5.082031 5.953125 -4.59375 C 6.378906 -4.113281 6.59375 -3.445312 6.59375 -2.59375 C 6.59375 -1.75 6.378906 -1.082031 5.953125 -0.59375 C 5.523438 -0.101562 4.941406 0.140625 4.203125 0.140625 C 3.835938 0.140625 3.53125 0.078125 3.28125 -0.046875 C 3.039062 -0.179688 2.847656 -0.382812 2.703125 -0.65625 L 2.703125 1.484375 L 3.5 1.484375 L 3.5 2.078125 L 0.234375 2.078125 L 0.234375 1.484375 L 0.96875 1.484375 Z "/>
</g>
<g id="glyph-0-17">
<path d="M 5.515625 -3.1875 L 5.515625 -0.59375 L 6.25 -0.59375 L 6.25 0 L 3.78125 0 L 3.78125 -0.65625 C 3.550781 -0.382812 3.296875 -0.179688 3.015625 -0.046875 C 2.734375 0.078125 2.414062 0.140625 2.0625 0.140625 C 1.53125 0.140625 1.117188 0 0.828125 -0.28125 C 0.546875 -0.570312 0.40625 -0.984375 0.40625 -1.515625 C 0.40625 -2.097656 0.609375 -2.53125 1.015625 -2.8125 C 1.429688 -3.101562 2.050781 -3.25 2.875 -3.25 L 3.78125 -3.25 L 3.78125 -3.5625 C 3.78125 -3.976562 3.679688 -4.285156 3.484375 -4.484375 C 3.285156 -4.691406 2.976562 -4.796875 2.5625 -4.796875 C 2.21875 -4.796875 1.953125 -4.722656 1.765625 -4.578125 C 1.578125 -4.429688 1.441406 -4.195312 1.359375 -3.875 L 0.8125 -3.875 L 0.8125 -5 C 1.125 -5.113281 1.441406 -5.195312 1.765625 -5.25 C 2.097656 -5.300781 2.453125 -5.328125 2.828125 -5.328125 C 3.753906 -5.328125 4.429688 -5.15625 4.859375 -4.8125 C 5.296875 -4.46875 5.515625 -3.925781 5.515625 -3.1875 Z M 3.78125 -1.625 L 3.78125 -2.671875 L 3.125 -2.671875 C 2.800781 -2.671875 2.550781 -2.582031 2.375 -2.40625 C 2.207031 -2.226562 2.125 -1.976562 2.125 -1.65625 C 2.125 -1.320312 2.1875 -1.070312 2.3125 -0.90625 C 2.4375 -0.75 2.628906 -0.671875 2.890625 -0.671875 C 3.160156 -0.671875 3.375 -0.757812 3.53125 -0.9375 C 3.695312 -1.113281 3.78125 -1.34375 3.78125 -1.625 Z "/>
</g>
</g>
</defs>
<g fill="rgb(100%, 100%, 100%)" fill-opacity="1">
<use xlink:href="#glyph-0-0" x="30" y="29.389648"/>
<use xlink:href="#glyph-0-1" x="39" y="29.389648"/>
<use xlink:href="#glyph-0-2" x="43" y="29.389648"/>
<use xlink:href="#glyph-0-3" x="51" y="29.389648"/>
<use xlink:href="#glyph-0-4" x="58" y="29.389648"/>
<use xlink:href="#glyph-0-1" x="64" y="29.389648"/>
<use xlink:href="#glyph-0-5" x="68" y="29.389648"/>
<use xlink:href="#glyph-0-6" x="75" y="29.389648"/>
<use xlink:href="#glyph-0-7" x="82" y="29.389648"/>
<use xlink:href="#glyph-0-8" x="85" y="29.389648"/>
<use xlink:href="#glyph-0-5" x="95" y="29.389648"/>
<use xlink:href="#glyph-0-9" x="102" y="29.389648"/>
<use xlink:href="#glyph-0-10" x="107" y="29.389648"/>
<use xlink:href="#glyph-0-11" x="111" y="29.389648"/>
<use xlink:href="#glyph-0-7" x="118" y="29.389648"/>
<use xlink:href="#glyph-0-12" x="121" y="29.389648"/>
<use xlink:href="#glyph-0-5" x="132" y="29.389648"/>
<use xlink:href="#glyph-0-11" x="139" y="29.389648"/>
<use xlink:href="#glyph-0-13" x="146" y="29.389648"/>
<use xlink:href="#glyph-0-10" x="152" y="29.389648"/>
<use xlink:href="#glyph-0-7" x="156" y="29.389648"/>
<use xlink:href="#glyph-0-14" x="159" y="29.389648"/>
<use xlink:href="#glyph-0-5" x="167" y="29.389648"/>
<use xlink:href="#glyph-0-15" x="174" y="29.389648"/>
<use xlink:href="#glyph-0-16" x="185" y="29.389648"/>
<use xlink:href="#glyph-0-17" x="192" y="29.389648"/>
<use xlink:href="#glyph-0-9" x="198" y="29.389648"/>
<use xlink:href="#glyph-0-1" x="203" y="29.389648"/>
<use xlink:href="#glyph-0-4" x="207" y="29.389648"/>
<use xlink:href="#glyph-0-5" x="213" y="29.389648"/>
<use xlink:href="#glyph-0-6" x="220" y="29.389648"/>
</g>
</svg>
